/* XPM */
const char * SDL_icon_xpm[] = {
"96 96 64 1",
" 	c None",
".	c #040656",
"+	c #0100B2",
"@	c #04056E",
"#	c #0000BD",
"$	c #0B0C09",
"%	c #0B0D26",
"&	c #090C42",
"*	c #060AA7",
"=	c #1604DA",
"-	c #020CD5",
";	c #100F8D",
">	c #040DE4",
",	c #11129B",
"'	c #1D1A83",
")	c #2A10FD",
"!	c #1318FA",
"~	c #25225B",
"{	c #252271",
"]	c #312E2B",
"^	c #33334D",
"/	c #363775",
"(	c #3D3B69",
"_	c #3A3B8B",
":	c #373AFF",
"<	c #4142AA",
"[	c #4B4864",
"}	c #4D4B4A",
"|	c #60492F",
"1	c #4F4C57",
"2	c #4A4A9E",
"3	c #4F4E85",
"4	c #474ADE",
"5	c #4E4FFE",
"6	c #5D5CB3",
"7	c #686663",
"8	c #666682",
"9	c #676875",
"0	c #66659E",
"a	c #8B6538",
"b	c #6465D5",
"c	c #7F694F",
"d	c #6767FF",
"e	c #7272FF",
"f	c #91795C",
"g	c #7677FD",
"h	c #828396",
"i	c #A78153",
"j	c #888989",
"k	c #8D897E",
"l	c #9190FD",
"m	c #CA9048",
"n	c #C09968",
"o	c #A9A8A1",
"p	c #A6A8B0",
"q	c #B0B1FB",
"r	c #EEAC61",
"s	c #E3B478",
"t	c #C3C4BE",
"u	c #FFC68C",
"v	c #FCCD90",
"w	c #D4D7D3",
"x	c #E3E5E0",
"y	c #FCFFFB",
"                                                                                                ",
"                                                                                                ",
"                                                                                                ",
"                                                                                                ",
"                                                                                                ",
"                                                                                                ",
"                                                                                                ",
"                                                                                                ",
"                                                                                                ",
"                                            ttj7777777joot                                      ",
"                                           9hh8830000088hh9                                     ",
"                                       9888(//__<bbbb2////3[888hpp                              ",
"                                 oj}^/_6bbbbgggggggb2///_bgbbbbb631kt                           ",
"                                (80066bgeeegggggggb22262/bbggeggb66081                          ",
"         p9^jj              pp8(_2bgggggeeeeeeeegb2~_bgb//6geegged5*'(hp                        ",
"         ^2<3[7           j^/2bbggggeeeeeeeeeeggb2_({'4eb/2ggge5:!!!>-*{^kt                     ",
"         &,5b60^         (02<beggggeeeeeeeeeegb62__7}~:5g/_bgd5!))))))=+;20k                    ",
"         @#:egb3^     pp({4dgggeeeeeeeeeeeeegg6/__3im}+:e//bd:!)))))))))!#;87                   ",
"        p'-!:dgb3]   7['4egeeeeeeeeeeeeeeeegg2/__[armc,-523<:!)))))))))))!>*{}                  ",
"       tp,-)!5egb3} ~_<4dgggeeeeeeeeeeeeeegb6/_2[amusf'#!<_'>))))))))))))!)>+{~                 ",
"        p;-))!5gb2^^'#5eggeeeeeeeeeeeeeeegg6/_23amrusi{#!+;;>))))))))))))))!!-'8p               ",
"       tp'#!)):d6(@*>5egeeeeeeeeeeeeeeeegg6_/<(amrrvvn{+)-,;>))))))!!!!!!)))!!>,~j              ",
"        p;#!))-'{'+-5eggeeeeeeeeeeeeeeeegb222(cmrruvvn{+)>,@>!)!!)!!>>>>======>-,/8             ",
"         ;#)!-*.;-!5eggeeeeeeeeeeeeeeeegb2_<6|mrrsvvvn{+)!,.-!!!!>>=--######+++-#@(k            ",
"        h@-)+@.*>!5egeeeeeeeeeeeeeeeeeegb_</]mrrruvvvn{+))*@->>--###++++++###+;@{(9j            ",
"       kh,#+@@,>!:dggeeeeeeeeeeeeeeeeeeebbb_]mrruuvvsf'#)!*.+-###+++++++##+*;'3(&^9             ",
"        8*,@@*)):dggeeeeeeeeeeeeeeeeeeeeggg<(|iruvvvsc,=!!*.;*++++++++###+,@&1o                 ",
"        8@@@-!)!5eeeeeeeeeeeeeeeeeeeeeeeeeggb2[csvvvn^#)!!+@;*#+++++###*@~[                     ",
"        9&@*!)):5geeeeeeeeeeeeeeeeeeeeeeeeegge637nsvf{>))!+;;*-######*;{.^                      ",
"        9%;!!)):dgeeeeeeeeeeeeeeeeeeeeeeeeeeeggb_1ir7;>))!+;;,++++++*'(}                        ",
"        9{+!))!5egeeeeeeeeeeeeeeeeeddddeeeeeeeege2}|~#!))!#;@...@@@.^hp                         ",
"        8,=!))):dggeeeeeeeeeeeeeeeeggggeeeeeeeeggb_~,>!))!+@@@;;;;@&^o                          ",
"       }(-)))))!:eegeeeeeeeeeeeeeegllllgeeeeeeeegd5+=))))!+;,#>--#,'/hj                         ",
"      o8.>))))))!:dgggeeeeeeeeeeellqqqqlgeeeeggg5:!!!)))))-*+>)!:55db631                        ",
"     p8<*!)))))))!:5deggggggeeeegqqqqqqqqlggged5:!))))))))>->!!:5ddeegb3/                       ",
"    oh'#!))))))))))!:ddeeeeeeeeglqqqqqqqqlgedd:!)))))))))))))!:dggggeggg239                     ",
"     ^*>!))!)))))))))!::55dddeegglll600333_4:!!)))))))))))))):dggeeeeeeggb6(9o                  ",
"     ~+=-+#>))))))))))!!!:::::5554<3889988[/,=)))))))))))))):5gggeeeeeeeggb6087                 ",
"     ~**@~'+>!))))))))))))))))!!>*{1kkooook7(,-!)))))))))))!:5deeeeeeeeeeeggb289                ",
"     ~,'1o7(*>!))))))))))))))))=,[jtttwxxxwto^;>!))))))))))!!!::5deggeeeeeeegbb3]               ",
"     ~@/oxt7'#))))))))))))))))=,3ktwxxyyyyyyxk/+!))))))))))))))!:::5degggeeegggb3^              ",
"     ^&8xyyt^,)))))))))))))))>,3otwxyyyyyyyyyxh'>)))))))))))))))))):5ddeeeeeeeggb3^             ",
"    771pyyyx7'=!)))))))))))!!#(jtxxyyyyyyyyyyyt3-)))))))))))))))))))!!::degggeeegb2[o           ",
"     77tyyyxk/+!!)))))))))))-;9owxyyyyyyyyyyyywh*>)))))))))))))))))))))!::5ddgggggb68j          ",
"      owyyyyt8;>))))))))))))*(otwyyyyyyyyyyyyyxp'-)))))))))))))))))))))))!!:5deeeggg_8j         ",
"     jtxyyyyxh'>)))))))))!!#_ktxyyyyyyyyyyyyyyyt_+))))))))))))))))))))))))))!!:5deggg63j        ",
"    7jwyyyyyyp/=))))))))))>,3owxyyyyyyyyyyyyyyyw/+))))))))))))))))))))))))))))!::5degb689       ",
"     7xyyyyyyo[#))))))))))-/jtwyyyyyyyyyyyyyyyyw/*)))))))))))))))))))))))))))))))!:5dgg_/       ",
"     }xyyyyyyt9*=))))))))=*9owyyyyyyyyyyyyyyyyyw/*)))))))))))))))))))))))))))))))))!!:5d3}      ",
"     }xyyyyyywj'#!))))))!#@7oxyyyyyyyyyyyyyyyyyw/*)))))))))))))))))))))))))))))))))))!!:4/7     ",
"     7xyyyyyyxj&,!!))))!!,%}oyyyyyyyyyyyyyyyyyyw/*))))))))))))))))))))))))))))))))))))))>487    ",
"     7xyyyyyywk$@!!)))!!-.$]oyyyyyyyyyyyyyyyyyyw/+))))))))))))))))))))))))))))))!!!!))))!>'     ",
"     }xyyyyyywj$&+!!)!)>;%$]jyyyyyyyyyyyyyyyyyyt{#)))))))))))))))))))))!!!!!!))!)!!!!!!))!#'    ",
"     7xyyyyyyt7$%@-!)!>*[]$$jyyyyyyyyyyyyyyyyyxp;-))))))))))))))))))!!!!!!!!!!!!>>>>>>>>>>!,^   ",
"     7xyyyyyyt}$][;-)=,(o7$$7yyyyyyyyyyyyyyyyyxp,-)))))))))))!!!!)!!!!>>>>=-----########--=+'9  ",
"     jwyyyyyyo}$}o(';@~7wj$$7yyyyyyyyyyyyyyyyywh*>)))))))))))!>>>=>=---#####+########+++***;@17 ",
"     otxyyyyyt}$7t7}1}7kw7$$7yyyyyyyyyyyyyyyyyt0-)))))))))!!!>--####+++++++++++++##+***,;''.&]  ",
"    ooowyyyyyt}$}j7owwojo}$$jyyyyyyyyyyyyyyyyyp2>)))))))!!!=##++++++++++++++###+*;@.~[8[9hph    ",
"     ojtyyyyywj$$}jwyyxo}$$]jyyyyyyyyyyyyyyyyyp'>))))))!>>-#++++++++++++####+,;'_3/&^}77kot     ",
"      7tyyyyyxo]$$oxyyyt]$$}tyyyyyyyyyyyyyyyyx0*!)))!!!>-#++++++++++++#+##+*;.&1ko              ",
"      7tyyyyyyx7]}xyyyyxj}]oxyyyyyyyyyyyyyyyyp<=)!!!!>-#++++++++++++####*;.(8h                  ",
"       owxyxxyytooywptwwtppxyyyyyyyyyyyyyyyxp3,-=!)!>-#++++++++++###+*,'_{&1k                   ",
"        jtwwttwtwwtj7kjowxyyyyyyyyyyyyyyyyxt7~'',+>=#+++++++++++###*;@&^j                       ",
"        ]joojj7}]}]|innfc7jtwyyyyyyyyyyyxtjcfnnnf[@*#+++++++++###+@.&%%                         ",
"       ]$}77}}$$$$]fsssnnifkkotwwwwwwwtpjkfinvvvsi}@*#++++++###*;@.@@&[                         ",
"      o7$]]]]]$$]|isvvvvvusifckopppopok7cisvvvvvvvn(,#++++++#+*@.&@*#;3o                        ",
"       }}$]|||fnnsvvvuvvvuuvvsniffffffnnsvvvvuuuvvvc{*+#++##*@&.@*+#--<7                        ",
"        }]cninsuvvvvuuuuuuvvvvusnnnnnssuvvvvvuuuuvvc~*+#+++*@.@;*##=>>,^                        ",
"         7fvvvvvvuuuuuuuuuuuuvvvvvvvvvvvuuuuuuuuuvvc~*+#+#+,.@*###->!!*~                        ",
"         pkivvvvuuuuuuuuuuuuuuuvvvvvvvvuuuvsnsuuuvvf~*+#++++*+++->!!)!#.                        ",
"          kfsuvvuuuuuuuuuuuuuuuuuuuuuuuuuvvnfsuvuvvc{++#++++###->!!))!-;h                       ",
"           kisvvvuuuuuuuuuuuuuuuuuuuuuuuvvvicsvvvvs1@##+++++++#>!!))))=,ho                      ",
"            7imuvvvuuuuuuuuuuuuuuuuuuuuvusfcivvuvvn~;##+++++++#>!!))))!#8k                      ",
"             cimruuuuuvuuuuuuuuuuuuuuuuvsnfisuvvvsc@*#+++++++++#>!!))))-3}                      ",
"              7amrruuuuuuuuuuuuuuuuuuuuvsnnsvvuvvi^,##++++++++++#>!!)))>/^                      ",
"               kfamrruuuuvvvuuuuuuuuuuuuuvvvvvvvn1@+#++++++++++++#>!)))>{~                      ",
"                7|iimrrruuuuuuuuuuuuuuuuvvvvuusn1'+#########++++++->!))>;                       ",
"                  7cammrrrrruuuuuuvvvvvuuuuurrm|.*-#+#######+###+++->!!!*'                      ",
"                   ookcaimmrrrrrruuuuurrrrrmi|]%.@@@@@;,*,*+########->!!*6o                     ",
"                    p7}|ainiimmmmmmmmmmminnia|$%.....{3322_{''',,**+#=!!#6k                     ",
"                          j7||aaiiiiiaa||7j           ookok711^&.';,*+=!><k                     ",
"                               koooook                          hph[~@+>><k                     ",
"                                ppppp                            tk7^3_,+<j                     ",
"                                                                     o7^@3j                     ",
"                                                                        9jj                     ",
"                                                                         o                      ",
"                                                                                                ",
"                                                                                                ",
"                                                                                                ",
"                                                                                                ",
"                                                                                                ",
"                                                                                                ",
"                                                                                                ",
"                                                                                                ",
"                                                                                                ",
"                                                                                                "};
