/* XPM */
static const char *SDL_icon_xpm[] = {
/* columns rows colors chars-per-pixel */
"32 32 175 2 ",
"   c None",
".  c #2E2E2E",
"X  c #3C3C3C",
"o  c #493939",
"O  c #4E473F",
"+  c #161658",
"@  c #131369",
"#  c #06067B",
"$  c #111173",
"%  c #16167F",
"&  c #252567",
"*  c #372B7C",
"=  c #3D3679",
"-  c #41414A",
";  c #575655",
":  c #6A5841",
">  c #5B4B72",
",  c #616160",
"<  c #7B7B7B",
"1  c #906E49",
"2  c #89685D",
"3  c #A67B4A",
"4  c #AA7F50",
"5  c #9B7560",
"6  c #856C78",
"7  c #997B7D",
"8  c #B48552",
"9  c #BA8A55",
"0  c #A48665",
"q  c #B98F67",
"w  c #B9946A",
"e  c #B7937A",
"r  c #C8955C",
"t  c #CA9966",
"y  c #DAA469",
"u  c #C9A37B",
"i  c #D7AB7B",
"p  c #DFB07D",
"a  c #EBAE6A",
"s  c #E5B27A",
"d  c #F1B779",
"f  c #0A0A83",
"g  c #05058B",
"h  c #060687",
"j  c #101089",
"k  c #131382",
"l  c #040494",
"z  c #02029D",
"x  c #0C0B9C",
"c  c #120F9E",
"v  c #19199B",
"b  c #382D84",
"n  c #39398D",
"m  c #222296",
"M  c #0101A6",
"N  c #0A0AA2",
"B  c #0202AC",
"V  c #1919A2",
"C  c #1616AD",
"Z  c #0000B5",
"A  c #0202BC",
"S  c #0C0CB6",
"D  c #1313B3",
"F  c #1011BD",
"G  c #1B1BBE",
"H  c #2B2BAC",
"J  c #3737A1",
"K  c #2A26BE",
"L  c #2A29B4",
"P  c #3B3BB8",
"I  c #48478B",
"U  c #57578A",
"Y  c #4A499A",
"T  c #524F95",
"R  c #565399",
"E  c #4C4CA8",
"W  c #524DA7",
"Q  c #5353A4",
"!  c #5555A9",
"~  c #5555B4",
"^  c #5656B7",
"/  c #6464A6",
"(  c #6F67B5",
")  c #0404C3",
"_  c #0707CA",
"`  c #1414CB",
"'  c #1A1AC6",
"]  c #0A0AD3",
"[  c #0D0DDC",
"{  c #1A1AD4",
"}  c #1010DF",
"|  c #1E1EDE",
" . c #1817DE",
".. c #221FCA",
"X. c #2B2BCC",
"o. c #2727C9",
"O. c #3434C3",
"+. c #3434D4",
"@. c #0F0FE2",
"#. c #1313E5",
"$. c #1515ED",
"%. c #1B1BEA",
"&. c #1C1CE4",
"*. c #1515F4",
"=. c #1818F3",
"-. c #1717FD",
";. c #1818FF",
":. c #2B2BE9",
">. c #2424FF",
",. c #2A2AFF",
"<. c #2222F1",
"1. c #3737FF",
"2. c #5D5DC3",
"3. c #5F5FC9",
"4. c #5655C2",
"5. c #4747D1",
"6. c #5B5BD4",
"7. c #6565C8",
"8. c #6363DA",
"9. c #4545FF",
"0. c #4D4DFC",
"q. c #5454FF",
"w. c #5959FF",
"e. c #6969E5",
"r. c #6B6CEA",
"t. c #6666E7",
"y. c #6B6BFE",
"u. c #6767F8",
"i. c #7070F6",
"p. c #7373FF",
"a. c #7C7CFF",
"s. c #91918F",
"d. c #8F9090",
"f. c #979797",
"g. c #9C9C9C",
"h. c #8585A1",
"j. c #9C9CA7",
"k. c #9292B6",
"l. c #A4A4A4",
"z. c #BDB2A4",
"x. c #A4A4B1",
"c. c #BFBFBD",
"v. c #BABAB7",
"b. c #C8AA87",
"n. c #DAAE82",
"m. c #DBB081",
"M. c #EBBA85",
"N. c #F3BF84",
"B. c #F2BE88",
"V. c #C2B3A3",
"C. c #FBC386",
"Z. c #FCC68C",
"A. c #FFC88F",
"S. c #F4C387",
"D. c #FFC990",
"F. c #C3C1BF",
"G. c #8F8FCB",
"H. c #BDBDC2",
"J. c #BDBDD1",
"K. c #8888F9",
"L. c #A4A4FB",
"P. c #CDCDCC",
"I. c #CECAC6",
"U. c #D3CFCA",
"Y. c #D3D0CC",
"T. c #C0C0D5",
"R. c #D6D5D4",
"E. c #D7D7DD",
"W. c #E1E1DF",
"Q. c #DEDEE1",
"!. c #E4E4E4",
"~. c #E8E8E8",
"^. c #F0F0EE",
"/. c #F5F5F2",
"(. c #FFFFFF",
/* pixels */
"                                                                ",
"                                                                ",
"                                                                ",
"                              I Q T =                           ",
"                      Q 7.e.r.i.8.E E 3.r.6.J                   ",
"      H ~       n 4.r.p.p.p.p.8.R > 5.^ w.,.-.{ v               ",
"      { 9.^ & P t.p.p.p.p.p.8.I 5 q K L <.;.;.;.-.'             ",
"      { %.H +.y.p.p.p.p.p.e.Y 2 a n.K F $.*.$.@.} ] N           ",
"      x D :.y.p.p.p.p.p.p.r.R 8 C.u ..F A ) A Z M h $           ",
"      f =.q.p.p.p.p.p.p.p.p.i.( e 6 $.` l B M g                 ",
"      ` ;.q.p.p.p.p.p.a.K.a.p.p.4.L -.` l N %                   ",
"    V =.-.>.q.y.p.p.p.L.L.K.i.w.,.-.;.$.<.q.u.2.                ",
"    D { =.-.;.>.1.1.9.( h.h.Q &.-.-.-.;.9.p.p.p.r.!             ",
"    U j.o.-.;.-.;.-.P x.Q.^.R.~ *.-.;.;.>.1.q.y.p.i.2.          ",
"    H./.! *.;.;.;.o.x./.(.(.(.J.| -.-.;.-.-.;.,.9.u.p.7.        ",
"    !.(.k.#.;.-.=./ !.(.(.(.(.Q.X.-.;.;.;.;.-.-.;.;.1.w.6.      ",
"    ~.(.H.G ;.-.D j.(.(.(.(.(.!.O.-.-.;.;.;.-.;.-.;.-.;.,.O.    ",
"    ~.(.v.@ *.$.+ d.(.(.(.(.(.E.o.-.-.;.;.-.;.;.;.*.=.=.*.$.v   ",
"    ~.(.l.- Y T ; < (.(.(.(.(.J.&.-.;.;.$.@.[ ] _ ) ) Z B B f   ",
"    P.(.F.X c.I.X f.(.(.(.(.(.G.=.-.=.] A Z Z Z Z z f $         ",
"    l.!.R.s.F.I.g.W.(.(.(.(.R.E  .[ A Z Z Z B g $               ",
"    . , ; - 0 M.b.V.U.R.Y.z.u n.7 c Z Z B g # +                 ",
"      : w p Z.D.A.S.p u i M.A.A.S.* Z B h z ] C                 ",
"        s D.D.A.A.A.A.A.A.A.i B.B.b A Z Z @.-.`                 ",
"        1 y C.D.A.A.A.A.A.M.u Z.e c A Z Z [ ;.&.                ",
"            8 y d C.A.A.A.C.B.t * B Z Z Z A #.=.m               ",
"                3 9 r t r 9 8 o @ $ # f j l B #.V               ",
"                                              j k               ",
"                                                                ",
"                                                                ",
"                                                                ",
"                                                                "
};
