/* XPM */
static char * SDL_icon_xpm[] = {
"32 32 46 1",
" 	c None",
".	c #000033",
"+	c #000045",
"@	c #00006C",
"#	c #01007E",
"$	c #000193",
"%	c #00009F",
"&	c #060766",
"*	c #0F0F10",
"=	c #0C11CC",
"-	c #0D13B8",
";	c #1415E0",
">	c #1E1AED",
",	c #1B1CFE",
"'	c #272576",
")	c #313179",
"!	c #3A3AB1",
"~	c #3A3AFF",
"{	c #434497",
"]	c #4F4AAE",
"^	c #4748FE",
"/	c #494DE8",
"(	c #7A5137",
"_	c #5E57A7",
":	c #5957C4",
"<	c #616360",
"[	c #855E93",
"}	c #796979",
"|	c #9C6473",
"1	c #6D6EF4",
"2	c #7171FF",
"3	c #817F9D",
"4	c #B37C5A",
"5	c #898A8D",
"6	c #A28572",
"7	c #A3829B",
"8	c #8988FF",
"9	c #C39D82",
"0	c #ABADAB",
"a	c #DCA57C",
"b	c #ABAAFE",
"c	c #C1C3C0",
"d	c #F7C095",
"e	c #CFD1CE",
"f	c #DDE0DD",
"g	c #FAFCF9",
"                                ",
"              {]]]]]])          ",
"           {:1222222221::)      ",
"         :1222222222^^>,,>%     ",
"  '    ]122222222:]>,,;=%$&     ",
" @~]  :222222221://-=%%%#.      ",
" #>^{122222222:1][~&%%%@        ",
" #>=122221221:/|a4,&%$&         ",
" #-!22228bb12/4ad9,&$+          ",
" ##^2221bbb2~,!ad7,@'{          ",
" )!,/22281^,,,,:d_,-221:)       ",
" /,;,,>,,-_!;,,,[=>=~2222:      ",
" {=,,,,;3fgg0;,,,,;,,,~^221{    ",
" 3_,,,>5ggggg3,,,,,,,,,,,>^2]   ",
" 05,,,_fgg0egc>,,,,,,,,,,,,,~!  ",
" 00>,>0ggf00gf;,,,,,,,,,,,,,,,- ",
" 5e%,!fggf55gf=,,,,,,,,,,>>>>,, ",
" <f+%5gggf*<ge;,,,,>==-%%%%%%$$#",
"  f*@cgggg*5g0>,>-%%%%%%$@@+    ",
"5e<<cggggg5cg)%%%%%%%$@+        ",
" ***99fggggg3%%%%%%#@@          ",
"  (4dd9fggf6}$%%%%$$=,%         ",
"   4dddd99dda6%$$%%%;,>         ",
"    4ddddda9a6$#%%%%=,,-        ",
"     4addddda*#%%%%%%>,;        ",
"       (444    +@$%%%-,,        ",
"                  &$%%=,$       ",
"                    &$%>-       ",
"                     +#-=       ",
"                       @-       ",
"                        &       ",
"                                "};
