/* XPM */
static const char *SDL_icon_xpm[] = {
"64 64 32 1",
" 	c None",
".	c #000271",
"+	c #03035D",
"@	c #00009F",
"#	c #0A0A1B",
"$	c #08058E",
"%	c #060E4C",
"&	c #11110E",
"*	c #101339",
"=	c #0D11CC",
"-	c #1B1CFD",
";	c #342B24",
">	c #2325EC",
",	c #3C3883",
"'	c #3D3A9E",
")	c #5B5170",
"!	c #4B4CFF",
"~	c #795339",
"{	c #5E5B5C",
"]	c #5F5ED3",
"^	c #5E5EFB",
"/	c #7271FF",
"(	c #B37F5D",
"_	c #8F8883",
":	c #8887FF",
"<	c #D59E76",
"[	c #ABABA9",
"}	c #A9AAFF",
"|	c #C1C3C1",
"1	c #FAC296",
"2	c #D4D6D3",
"3	c #F9FCF8",
"                                                                ",
"                                                                ",
"                              #***,,,****                       ",
"                          *,,]]]]]]]]]]]]]',,**                 ",
"                       *,']//////////////////]]',*              ",
"                    *,']/////////////////////////]'%            ",
"                  *,]////////////////////^^!!>>>>>>>$+          ",
"                *,]////////////////////!>---------->=@%         ",
"    *          ,]///////////////////]^>------->==@@@$.#         ",
"   +',       *']//////////////////],,,=---->=@@@@@$.%           ",
"  #.=^'*    ,]//////////////////],']^]$--=@@@@@@@$+#            ",
"  %$=-^'*  ,]/////////////////],]/!>-^'=@@@@@@@$.%              ",
"  +$=->/,*,//////////////////]'/^!,$-!,$@@@@@@$+*               ",
"  +@=--!''/////////////////]']^!,(()->%$@@@@@$+#                ",
"  +@=--='/////////////////]']^${(<<)->,$@@@@$%                  ",
"  +@=->']/////////:::////]]/^'(<111)->,$@@@$%                   ",
" #+@@>$]////////::}}}://///!,(<1111)--%$@@.%                    ",
" #+@@$$^////////:}}}}}://^>$(<<1111)--+$@.%                     ",
"  +@$.>^///////:}}}}}}:/^>->,(<111<'--+$$*#                     ",
"  +$.=-!///////:}}}}}:^!-----@(111<@--+$,'],,*                  ",
"  %+%=->^///////:}}}:!--------@(11(=--$=^////],*                ",
"  ,]]'>->^//////^^!!-----------'<1_>--@-!//////]'*              ",
"  '!->@--->>>>>>--->===>--------)<,-->@->^///////]',            ",
" *$--->----------='){__{'>------>'=--=@-->!^///////],*          ",
" %$.=---------->$)[22332[)=----------=>----->^^//////],         ",
" %$_,--------->'_|3333333['----------=--------->!^////],#       ",
" *'[{=--------'_2333333333_=---------------------->!^///,*      ",
" #)[_@-------@_|33333333332,------------------------->!^/'*     ",
" #)2[$------=)|333332|23333{>--------------------------->^'*    ",
"  {2|,------$[233333___3333_=----------------------------->$    ",
"  ;22)=---->)|333332{2_2333[@-------------------------------$   ",
"  &22{@----$_233333|{2||333|'--------------------------------$  ",
"  &|3_.----,|333333[;2|[333|'--------------------------------=+ ",
"   [3_%=--={2333333[&___333|'-------------------->>>====>>----@ ",
"   _3[#$=@.[2333333[&&&_333[$------------->>==@@@@@@@@@@@@@@@==+",
"   {3|;+$$)|3333333[&&&[333_=-------->==@@@@@@@@@@@@@@@$$$$.+++%",
"   {23{*$${23333333|;&&|332)>----->=@@@@@@@@@@@@@@$$$.++%**     ",
";{{;[3{&*)[333333333{&&|332,=---==@@@@@@@@@@@@$$.++%*           ",
"{22_{|[;_|2333333333_&;233_$@@@@@@@@@@@@@@@@$$+%*               ",
"&_|2{;{{[233333333332_[33[,$@@@@@@@@@@@@@$$+%#                  ",
" &;{&&&;~(_|3333333333332)$@@@@@@@@@@@@$.+%#                    ",
"  &&&&&;(11([33333333332{$@@@@@@@@@@@$...$@$*                   ",
"    &~((1111<[333333332{%.$@@@@@@@@@$$$$@=--$                   ",
"     ~<<11111<[33333|[_(<~,$@@@@@@@@@@@@@>-->.                  ",
"     ;(<111111<(____(11111(+@@@@@@@@@@@@=----=%                 ",
"      ~(<11111111<11111<(<<;$@@$$@@@@@@@=-----.                 ",
"       ~(<1111111111111(~<1{$$$.$@@@@@@@=-----=                 ",
"        ~(<1111111<<(((<11<*$+.$@@@@@@@@@>---->+                ",
"         ;(<1111111<<1111<~%+$@@@@@@@@@@@=-----$                ",
"           ~(<<111111111(~&*+$$$@@@@@@@@@@=----=%               ",
"             ;~((<<<<(~~;    *%+$$@@@@@@@@@>----+               ",
"                 ;;;            #%+$$@@@@@@@----.               ",
"                                   *+$$@@@@@=---@               ",
"                                     *+$@@@@@>--=               ",
"                                       *.$@@@@-->%              ",
"                                        #%.$@@=->+              ",
"                                          *+$@@>-$              ",
"                                            %$@=-$              ",
"                                             %.@>@              ",
"                                               +=@              ",
"                                                ..              ",
"                                                 *              ",
"                                                                ",
"                                                                "};
