#define VMU_width 48
#define VMU_height 32
static unsigned char VMU_bits[] = {
   0x00, 0x00, 0x00, 0x00, 0x00, 0x00, 0x00, 0x00, 0x00, 0x00, 0x00, 0x00,
   0x00, 0x00, 0x00, 0x00, 0x00, 0x00, 0x00, 0x00, 0xe0, 0x0f, 0x00, 0x00,
   0x00, 0x00, 0x58, 0x75, 0x00, 0x00, 0x00, 0x00, 0xee, 0xaa, 0x00, 0x00,
   0x00, 0x86, 0x55, 0x55, 0x01, 0x00, 0x00, 0xda, 0xc8, 0xaf, 0x00, 0x00,
   0x00, 0x62, 0x55, 0x54, 0x00, 0x00, 0x00, 0x32, 0xa2, 0x6c, 0x00, 0x00,
   0x00, 0x5c, 0x55, 0xfd, 0x01, 0x00, 0x00, 0xac, 0x88, 0xaa, 0x02, 0x00,
   0x00, 0x54, 0x75, 0x55, 0x05, 0x00, 0x00, 0xac, 0xbf, 0xaa, 0x0a, 0x00,
   0x00, 0xd6, 0x61, 0x55, 0x15, 0x00, 0x00, 0xe9, 0xc0, 0xaa, 0x2a, 0x00,
   0x00, 0x39, 0x40, 0x55, 0x55, 0x00, 0x00, 0x6d, 0xc0, 0xaa, 0xbe, 0x00,
   0x00, 0x6d, 0x40, 0xd5, 0xc3, 0x00, 0x00, 0x6d, 0xc0, 0xea, 0x00, 0x00,
   0x00, 0x29, 0x60, 0xf5, 0x00, 0x00, 0x00, 0x26, 0xe0, 0xfa, 0x00, 0x00,
   0x00, 0x58, 0xb8, 0xbd, 0x00, 0x00, 0x00, 0x84, 0x07, 0xdf, 0x00, 0x00,
   0x00, 0x08, 0x20, 0xae, 0x00, 0x00, 0x00, 0x30, 0xc0, 0x5f, 0x01, 0x00,
   0x00, 0xc0, 0x3f, 0xb8, 0x01, 0x00, 0x00, 0x00, 0x00, 0xc0, 0x01, 0x00,
   0x00, 0x00, 0x00, 0x00, 0x00, 0x00, 0x00, 0x00, 0x00, 0x00, 0x00, 0x00,
   0x00, 0x00, 0x00, 0x00, 0x00, 0x00, 0x00, 0x00, 0x00, 0x00, 0x00, 0x00 };
