/* XPM */
static const char * SDL_icon_xpm[] = {
"32 32 45 1",
" 	c None",
".	c #6B6BFF",
"+	c #3D00B9",
"@	c #4848FF",
"#	c #2525FF",
"$	c #310096",
"%	c #003196",
"&	c #003DB9",
"*	c #620096",
"=	c #6E6E6E",
"-	c #966200",
";	c #250073",
">	c #626262",
",	c #FF8F6B",
"'	c #FFC66B",
")	c #FFAB8E",
"!	c #000080",
"~	c #B6B6B6",
"{	c #929292",
"]	c #FFD48E",
"^	c #0000B9",
"/	c #565656",
"(	c #868686",
"_	c #808080",
":	c #C0C0C0",
"<	c #DADADA",
"[	c #F2F2F2",
"}	c #FFFFFF",
"|	c #CECECE",
"1	c #AAAAAA",
"2	c #E6E6E6",
"3	c #000096",
"4	c #AB8EFF",
"5	c #190050",
"6	c #000000",
"7	c #8E8EFF",
"8	c #3E3E3E",
"9	c #7A7A7A",
"0	c #0E0E0E",
"a	c #9E9E9E",
"b	c #001950",
"c	c #C2C2C2",
"d	c #323232",
"e	c #002573",
"f	c #A0A0A4",
"                                ",
"                                ",
"                                ",
"             .+@##@.            ",
"           @@.@#######@         ",
"         @@....#########        ",
" ..    .@.....@+##$%%%&&%       ",
" ..@# @@....@+#*=-;%%%%%        ",
"  ..@#@......@>,')!%%%$         ",
" ~..$#.........{])^#+%/         ",
"   +##@.........()^@@@@@_       ",
"  $####@........#=#######+      ",
"  +######....@@##^#########_    ",
"  +#####=:<<:+##############/   ",
"[<=####{<}}}}|###############=  ",
" }1###=2}}}}}}.###############  ",
" }<3#3~}}}}}}}4################ ",
" }<5#6:}}}}}}}7################/",
" }:6861}}}}}}}.########$$ 9  .@$",
" }:0a6~}}}}}}}@######5b         ",
"22cd262}}}}}}2######5b$         ",
"  2>1a}}}}}}}{(*###%be##        ",
"  860)1<[22c1)]]+##be###        ",
"  ~)]]]))))]]]]]=#bb####        ",
"   )]]]]]]]]](]]=eb$####        ",
"    :]]]]]]]]]'9bbb$#####       ",
"      ),'''''(    >db+###       ",
"                      =##f      ",
"                        {       ",
"                                ",
"                                ",
"                                "};
