/* XPM */
static char * C:\Repo\srb2\src\sdl\SDL_icon_xpm[] = {
"32 32 390 2",
"  	c None",
". 	c #4F4F70",
"+ 	c #4D4D87",
"@ 	c #4D4D84",
"# 	c #4E4E6C",
"$ 	c #6C6C95",
"% 	c #5E5EB2",
"& 	c #6B6BE7",
"* 	c #7373F9",
"= 	c #7C7CFF",
"- 	c #6F70E7",
"; 	c #494BB2",
"> 	c #4F4FA3",
", 	c #6464D4",
"' 	c #7979F5",
") 	c #5F5FCA",
"! 	c #5D5D93",
"~ 	c #3A3A9F",
"{ 	c #6060AC",
"] 	c #777793",
"^ 	c #5C5CB3",
"/ 	c #7373EA",
"( 	c #7A7AFF",
"_ 	c #7575FF",
": 	c #7979FF",
"< 	c #6264DD",
"[ 	c #47478C",
"} 	c #564567",
"| 	c #4647D0",
"1 	c #5C5CAE",
"2 	c #5E5EFF",
"3 	c #2929FF",
"4 	c #1D1DFF",
"5 	c #1919D1",
"6 	c #4F4F90",
"7 	c #1E1ECE",
"8 	c #5858FF",
"9 	c #6767A8",
"0 	c #4949A0",
"a 	c #7070FB",
"b 	c #7D7DFF",
"c 	c #7777FF",
"d 	c #7373FF",
"e 	c #7272FF",
"f 	c #7878FF",
"g 	c #6465D8",
"h 	c #363886",
"i 	c #9F7655",
"j 	c #C89B5C",
"k 	c #1D1CB7",
"l 	c #3031B1",
"m 	c #1919F4",
"n 	c #1111FF",
"o 	c #1818FF",
"p 	c #1B1BFF",
"q 	c #1C1CFF",
"r 	c #2626B3",
"s 	c #1E1EC8",
"t 	c #1A1AE8",
"u 	c #24249F",
"v 	c #2F2FD2",
"w 	c #7676FF",
"x 	c #6869E2",
"y 	c #414290",
"z 	c #8C6751",
"A 	c #FCBA68",
"B 	c #E9BD7D",
"C 	c #201EB8",
"D 	c #090AB8",
"E 	c #1616EB",
"F 	c #1818FD",
"G 	c #1414EE",
"H 	c #1010E1",
"I 	c #0E0EE2",
"J 	c #0E0EF4",
"K 	c #0606B2",
"L 	c #7A7A89",
"M 	c #0C0C9A",
"N 	c #0A0AA7",
"O 	c #2424E4",
"P 	c #6669E6",
"Q 	c #4F4A8F",
"R 	c #BF853B",
"S 	c #FFD98D",
"T 	c #CDAB76",
"U 	c #1717C4",
"V 	c #0F10BA",
"W 	c #0909B6",
"X 	c #0505C3",
"Y 	c #0000B6",
"Z 	c #0000BE",
"` 	c #0000AD",
" .	c #1D1D83",
"..	c #63638E",
"+.	c #090975",
"@.	c #1414F3",
"#.	c #5B5BFF",
"$.	c #7B7BFF",
"%.	c #7070FF",
"&.	c #6E6EFF",
"*.	c #7172F6",
"=.	c #625DAF",
"-.	c #BA9E6C",
";.	c #887167",
">.	c #090DF2",
",.	c #1313BE",
"'.	c #000085",
").	c #0000AC",
"!.	c #0202AA",
"~.	c #242488",
"{.	c #1414C7",
"].	c #1717FF",
"^.	c #5959FF",
"/.	c #7F7FFF",
"(.	c #7474FF",
"_.	c #7171FF",
":.	c #8686FF",
"<.	c #7574FF",
"[.	c #797CFF",
"}.	c #5756B8",
"|.	c #1C19A4",
"1.	c #1617FF",
"2.	c #1212BD",
"3.	c #040485",
"4.	c #0707A4",
"5.	c #1B1B71",
"6.	c #373797",
"7.	c #1616FF",
"8.	c #5050FF",
"9.	c #8080FF",
"0.	c #AAAAFF",
"a.	c #AEAEF6",
"b.	c #8A8AEF",
"c.	c #6969FB",
"d.	c #2728FF",
"e.	c #1314FF",
"f.	c #1919FF",
"g.	c #1313E8",
"h.	c #1F1FF4",
"i.	c #5454FF",
"j.	c #6D6DF0",
"k.	c #6868B5",
"l.	c #0B0BB8",
"m.	c #1212C5",
"n.	c #1616FC",
"o.	c #1515FF",
"p.	c #1212FF",
"q.	c #2323FF",
"r.	c #3636FF",
"s.	c #4040FF",
"t.	c #4343F9",
"u.	c #5D5DB8",
"v.	c #7F7F92",
"w.	c #878793",
"x.	c #4B4B94",
"y.	c #0B0CE2",
"z.	c #1313FF",
"A.	c #4C4CFF",
"B.	c #8282FF",
"C.	c #7171ED",
"D.	c #636394",
"E.	c #575785",
"F.	c #A9A99C",
"G.	c #1414BC",
"H.	c #1414FF",
"I.	c #0707FD",
"J.	c #2525AA",
"K.	c #A8A8A4",
"L.	c #EBEBE2",
"M.	c #F9F9F2",
"N.	c #E1E1CC",
"O.	c #4D4D9F",
"P.	c #0B0BF7",
"Q.	c #2121FF",
"R.	c #3232FF",
"S.	c #5555FF",
"T.	c #6161B4",
"U.	c #B5B5B2",
"V.	c #FFFFF8",
"W.	c #4F4F9A",
"X.	c #0B0BF5",
"Y.	c #1616C5",
"Z.	c #A8A8A1",
"`.	c #FFFFFC",
" +	c #FFFFFF",
".+	c #C0C0C4",
"++	c #1212D4",
"@+	c #4444FF",
"#+	c #6464FF",
"$+	c #8383FF",
"%+	c #6767C3",
"&+	c #E4E4E4",
"*+	c #9494AE",
"=+	c #0808DF",
"-+	c #0D0DF2",
";+	c #61619A",
">+	c #F1F1E0",
",+	c #E8E8DD",
"'+	c #2424BB",
")+	c #1010FF",
"!+	c #3434FF",
"~+	c #6161FF",
"{+	c #6969D2",
"]+	c #EFEFF0",
"^+	c #C2C2BA",
"/+	c #1010B6",
"(+	c #0909AC",
"_+	c #A4A49A",
":+	c #EAEADE",
"<+	c #2525B8",
"[+	c #2F2FFF",
"}+	c #3C3CB5",
"|+	c #EEEEEE",
"1+	c #BBBBAD",
"2+	c #0B0B56",
"3+	c #0B0BFC",
"4+	c #1212EF",
"5+	c #0C0C3E",
"6+	c #919187",
"7+	c #DEDED6",
"8+	c #1F1FC0",
"9+	c #1A1AFF",
"0+	c #1717FA",
"a+	c #1515F8",
"b+	c #1111FC",
"c+	c #494992",
"d+	c #999998",
"e+	c #3E3E3B",
"f+	c #3C3C99",
"g+	c #535397",
"h+	c #5A5A4D",
"i+	c #6F6F70",
"j+	c #BFBFC9",
"k+	c #1111D6",
"l+	c #1515F1",
"m+	c #0F0FE2",
"n+	c #0D0DD9",
"o+	c #0909CD",
"p+	c #0808C7",
"q+	c #0505C7",
"r+	c #0303CB",
"s+	c #0101C0",
"t+	c #0202AF",
"u+	c #0606AC",
"v+	c #121283",
"w+	c #BBBBBB",
"x+	c #BEBEBE",
"y+	c #2F2F2E",
"z+	c #C7C8BB",
"A+	c #D8DAD1",
"B+	c #272828",
"C+	c #929292",
"D+	c #8688C7",
"E+	c #0506F6",
"F+	c #1616F5",
"G+	c #0B0BD3",
"H+	c #0202B6",
"I+	c #0000AF",
"J+	c #0000B4",
"K+	c #0000BD",
"L+	c #0000BB",
"M+	c #00009E",
"N+	c #2C2C7E",
"O+	c #6A6A8B",
"P+	c #959595",
"Q+	c #F0F0F1",
"R+	c #E1E1E1",
"S+	c #8C8E90",
"T+	c #BEBEBF",
"U+	c #C9C7C5",
"V+	c #939699",
"W+	c #E7EAED",
"X+	c #CBCBC7",
"Y+	c #413B9B",
"Z+	c #0607DD",
"`+	c #0C0CE2",
" @	c #0303B9",
".@	c #0000A8",
"+@	c #181888",
"@@	c #6A6A6A",
"#@	c #626263",
"$@	c #4B4B4C",
"%@	c #3E3B36",
"&@	c #9B805C",
"*@	c #D9B07D",
"=@	c #C9AE89",
"-@	c #B9AF9E",
";@	c #C7C5C4",
">@	c #CBCCCF",
",@	c #C7C6C6",
"'@	c #AEA59A",
")@	c #B69974",
"!@	c #D8B87F",
"~@	c #9B8272",
"{@	c #0E0B9B",
"]@	c #0000B7",
"^@	c #0000B8",
"/@	c #000082",
"(@	c #00007A",
"_@	c #636379",
":@	c #62533E",
"<@	c #B59B6C",
"[@	c #DEB07B",
"}@	c #FECC90",
"|@	c #FFCE92",
"1@	c #FEC98C",
"2@	c #F1BD82",
"3@	c #D1A979",
"4@	c #BC9E73",
"5@	c #CCA777",
"6@	c #EAB980",
"7@	c #FFCD90",
"8@	c #FFD595",
"9@	c #FDD782",
"0@	c #413678",
"a@	c #0000AE",
"b@	c #000077",
"c@	c #010193",
"d@	c #0C0CE4",
"e@	c #38389E",
"f@	c #EEC585",
"g@	c #FFDA9D",
"h@	c #FFC992",
"i@	c #FFC88F",
"j@	c #FFC990",
"k@	c #FFCE93",
"l@	c #FFD094",
"m@	c #FFCC92",
"n@	c #C9A174",
"o@	c #EDBD88",
"p@	c #FAD287",
"q@	c #3A2F7F",
"r@	c #0000BA",
"s@	c #0000B0",
"t@	c #0101B2",
"u@	c #1111ED",
"v@	c #1919C1",
"w@	c #95887C",
"x@	c #DCAC6E",
"y@	c #FFD393",
"z@	c #FFCD94",
"A@	c #FFCA93",
"B@	c #FFC991",
"C@	c #FFC78E",
"D@	c #FFCB91",
"E@	c #E0B581",
"F@	c #BB9A6F",
"G@	c #FFDC97",
"H@	c #C1A173",
"I@	c #0E0B9A",
"J@	c #0000B5",
"K@	c #0101B6",
"L@	c #1010E0",
"M@	c #1616EC",
"N@	c #A68156",
"O@	c #E7AC6B",
"P@	c #FFC582",
"Q@	c #FFCF8F",
"R@	c #FFD195",
"S@	c #FFD296",
"T@	c #FFD396",
"U@	c #FFD193",
"V@	c #FFD28F",
"W@	c #D2A96B",
"X@	c #2F2482",
"Y@	c #0000C1",
"Z@	c #0000C0",
"`@	c #0000BF",
" #	c #0101BF",
".#	c #1212F0",
"+#	c #767698",
"@#	c #9C866E",
"##	c #A9865D",
"$#	c #C0915D",
"%#	c #C89760",
"&#	c #C29360",
"*#	c #AD8A61",
"=#	c #9D8971",
"-#	c #7F7A7A",
";#	c #70708F",
">#	c #6F6F91",
",#	c #575788",
"'#	c #464687",
")#	c #2F2F87",
"!#	c #15158F",
"~#	c #0101A8",
"{#	c #1313FB",
"]#	c #57579F",
"^#	c #343487",
"/#	c #434388",
"                                                                ",
"                                                                ",
"                                                                ",
"                              . + @ #                           ",
"                      $ % & * = - ; > , ' ) !                   ",
"      ~ {       ] ^ / = ( _ : < [ } | 1 2 3 4 5 6               ",
"      7 8 9   0 a b c d e f g h i j k l m n o p q r             ",
"      s t u v _ f d d d w x y z A B C D E F G H I J K L         ",
"      M N O _ c e d d d _ P Q R S T U V W X Y Z `  ...          ",
"      +.@.#.$.d d d d %.&._ *.=.-.;.>.,.'.).!.~.                ",
"      {.].^./.(.d d _.$.:._ <.[.}.|.1.2.3.4.5.                  ",
"    6.7.7.4 8.e : w 9.0.a.b.c.2 d.e.f.g.h.i.j.k.                ",
"    l.m.n.o.p.q.r.s.t.u.v.w.x.y.z.o o z.A.B./.b C.D.            ",
"    E.F.G.].o H.z.I.J.K.L.M.N.O.P.o o o Q.R.S._.b B.T.          ",
"    U.V.W.X.f.f.7.Y.Z.`. + + +.+++].o o o.n z.q.@+#+$+%+        ",
"    &+ +*+=+].o -+;+>+ + + + +,+'+H.o o o o o H.)+o !+~+{+      ",
"    ]+ +^+/+H.o.(+_+ + + + + +:+<+z.o o o o o o o 7.n H.[+}+    ",
"    |+ +1+2+3+4+5+6+ + + + + +7+8+H.o o f.9+f.9+f.F 0+a+b+o.c+  ",
"    &+ +d+e+f+g+h+i+ + + + + +j+k+].f.9+l+m+n+o+p+q+r+s+t+u+v+  ",
"    w+ +x+y+z+A+B+C+ + + + + +D+E+9+F+G+H+I+J+K+L+M+N+O+        ",
"    P+Q+R+S+T+U+V+W+ + + + +X+Y+Z+`+ @I+J+Z .@+@E.              ",
"    @@#@$@%@&@*@=@-@;@>@,@'@)@!@~@{@]@^@I+/@(@_@                ",
"      :@<@[@}@|@1@2@3@4@5@6@7@8@9@0@L+a@b@c@d@e@                ",
"        f@g@h@i@i@j@k@l@|@m@n@o@p@q@r@s@t@u@p v@                ",
"        w@x@y@z@A@B@i@C@D@E@F@G@H@I@L+J@K@L@p M@                ",
"            N@O@P@Q@R@S@T@U@V@W@X@Y@Z@Y@`@ #.#p +#              ",
"                @###$#%#&#*#=#-#;#>#,#'#)#!#~#{#]#              ",
"                                              ^#/#              ",
"                                                                ",
"                                                                ",
"                                                                ",
"                                                                "};
